<?xml version="1.0" encoding="UTF-8"?><svg id="Layer_1" xmlns="http://www.w3.org/2000/svg" viewBox="0 0 417.75 77.81"><defs><style>.cls-1{fill:#474747;}.cls-2{fill:#e6b43e;}.cls-3{fill:#4466ad;}</style></defs><path class="cls-1" d="M111.68,27.89h-15.52l-2.96,7.58h-6.07L101.11.65h5.37l14.4,34.82h-6.19l-3.01-7.58ZM98.13,22.78h11.56l-5.82-14.68-5.74,14.68Z"/><polygon class="cls-1" points="146.2 30.14 146.2 35.47 126.01 35.47 126.01 .65 131.72 .65 131.72 30.14 146.2 30.14"/><polygon class="cls-1" points="171.87 30.14 171.87 35.47 151.68 35.47 151.68 .65 157.4 .65 157.4 30.14 171.87 30.14"/><rect class="cls-1" x="172.46" y="18.88" width="15.96" height="5.33"/><path class="cls-1" d="M220.85,12.15c0,6.57-5.09,11.5-11.87,11.5h-7.16v11.82h-5.72V.65h12.87c6.75,0,11.87,4.89,11.87,11.5M215.03,12.15c0-3.5-2.61-6.08-6.33-6.08h-6.88v12.15h6.88c3.72,0,6.33-2.58,6.33-6.08"/><path class="cls-1" d="M226.32,22.45V.65h5.75v21.44c0,5.14,3.42,8.53,8.24,8.53s8.21-3.39,8.21-8.53V.65h5.75v21.79c0,8.03-5.97,13.68-13.96,13.68s-13.99-5.65-13.99-13.68"/><path class="cls-1" d="M275.09,22.59h-6.6v12.88h-5.71V.65h13.55c6.71,0,11.7,4.59,11.7,11.02,0,4.75-2.83,8.53-7.08,10.11l8.04,13.69h-6.41l-7.48-12.88ZM268.48,17.24h7.51c3.78,0,6.22-2.34,6.22-5.62s-2.44-5.62-6.22-5.62h-7.51v11.23Z"/><path class="cls-1" d="M319.9,12.15c0,6.57-5.09,11.5-11.87,11.5h-7.16v11.82h-5.71V.65h12.87c6.75,0,11.87,4.89,11.87,11.5M314.08,12.15c0-3.5-2.61-6.08-6.33-6.08h-6.88v12.15h6.88c3.72,0,6.33-2.58,6.33-6.08"/><path class="cls-1" d="M323.51,18.06c0-10.31,7.8-18.06,18.37-18.06s18.34,7.74,18.34,18.06-7.78,18.06-18.34,18.06-18.37-7.75-18.37-18.06M354.41,18.06c0-7.19-5.35-12.56-12.53-12.56s-12.56,5.42-12.56,12.56,5.38,12.56,12.56,12.56,12.53-5.38,12.53-12.56"/><path class="cls-1" d="M364.58,24.51h5.8c0,3.89,3.2,6.04,7.28,6.04,3.71,0,6.87-1.95,6.87-5.15,0-3.46-3.73-4.33-7.93-5.32-5.33-1.3-11.44-2.77-11.44-9.95,0-6.28,4.76-9.99,12.18-9.99s12.02,4.12,12.02,10.68h-5.65c0-3.47-2.87-5.35-6.5-5.35s-6.34,1.59-6.34,4.42c0,3.22,3.58,4.09,7.72,5.08,5.41,1.34,11.79,2.89,11.79,10.38,0,6.97-5.62,10.67-12.67,10.67-7.81,0-13.13-4.38-13.13-11.5"/><polygon class="cls-1" points="417.75 30.07 417.75 35.47 396.99 35.47 396.99 .65 417.21 .65 417.21 6 402.7 6 402.7 15.1 415.92 15.1 415.92 20.33 402.7 20.33 402.7 30.07 417.75 30.07"/><path class="cls-1" d="M85.66,65.69h9.89c0,2.49,1.92,3.7,4.11,3.7,2.01,0,3.93-1.07,3.93-2.97,0-2.19-2.71-2.82-6.03-3.62-5.03-1.25-11.45-2.79-11.45-10.72,0-6.85,5.04-10.78,13.25-10.78s13.13,4.29,13.13,11.37h-9.62c0-2.2-1.64-3.23-3.63-3.23-1.71,0-3.35.74-3.35,2.37,0,1.98,2.62,2.63,5.9,3.46,5.13,1.32,11.82,3.03,11.82,10.98s-5.84,11.55-13.93,11.55c-8.52,0-14.03-4.51-14.03-12.1"/><polygon class="cls-1" points="144.06 50.75 134.6 50.75 134.6 76.93 124.96 76.93 124.96 50.75 115.51 50.75 115.51 42.11 144.06 42.11 144.06 50.75"/><path class="cls-1" d="M145.63,59.52c0-10.64,7.99-18.29,19.18-18.29s19.12,7.62,19.12,18.29-7.96,18.29-19.12,18.29-19.18-7.65-19.18-18.29M173.94,59.52c0-5.45-3.84-9.36-9.14-9.36s-9.19,3.94-9.19,9.36,3.89,9.36,9.19,9.36,9.14-3.92,9.14-9.36"/><path class="cls-1" d="M201.91,66.27h-3.48v10.65h-9.59v-34.82h15.09c7.51,0,12.95,5.04,12.95,12.32,0,4.27-2.09,7.77-5.52,9.83l6.91,12.66h-10.7l-5.65-10.65ZM198.43,58.19h4.38c2.68,0,4.22-1.61,4.22-3.79s-1.54-3.77-4.22-3.77h-4.38v7.56Z"/><path class="cls-1" d="M243.5,71.27h-12.34l-1.93,5.66h-10.28l13.68-34.82h9.37l13.98,34.82h-10.56l-1.92-5.66ZM237.31,52.98l-3.82,10.79h7.67l-3.85-10.79Z"/><path class="cls-1" d="M292.79,58.32c0,11.39-7.44,19.49-18.34,19.49s-18.55-7.67-18.55-18.26,7.74-18.32,18.46-18.32c9.12,0,16.59,5.71,18.06,13.8h-10.05c-1.26-2.93-4.37-4.82-7.93-4.82-5.21,0-8.73,3.77-8.73,9.33s3.46,9.28,8.73,9.28c3.66,0,6.8-1.77,7.9-4.46h-8.65v-6.05h19.09Z"/><polygon class="cls-1" points="320.34 68.61 320.34 76.93 297.64 76.93 297.64 42.11 319.92 42.11 319.92 50.4 307.19 50.4 307.19 55.53 318.63 55.53 318.63 63.4 307.19 63.4 307.19 68.61 320.34 68.61"/><path class="cls-2" d="M10.44,11.09h50.81c1.25,0,2.45-.5,3.33-1.38l7.52-7.52c.57-.57.17-1.54-.64-1.54H9.02C4.04.65,0,4.69,0,9.67v62.44c0,.8.97,1.21,1.54.64l7.52-7.52c.88-.88,1.38-2.08,1.38-3.33V11.09Z"/><path class="cls-3" d="M66.15,16v50.81H15.35c-1.25,0-2.45.5-3.33,1.38l-7.52,7.52c-.57.57-.17,1.54.64,1.54h62.44c4.98,0,9.02-4.04,9.02-9.02V5.78c0-.8-.97-1.21-1.54-.64l-7.52,7.52c-.88.88-1.38,2.08-1.38,3.33"/></svg>